# xmcd
#
# Track frame offsets:
#	150
#	17357
#	25446
#	38153
#	52892
#	64627
#	70097
#	89839
#
# Disc length: 1383 seconds
#
# Revision: 1
# Processed by: cddbd v1.5.2PL0 Copyright (c) Steve Scherf et al.
# Submitted via: audiograbber 1.83.01
#
DISCID=61056508
DTITLE=Black Diamond Express Train To Hell - Black Diamond Express Train To Hel
DTITLE=l
DYEAR=2010
DGENRE=Country
TTITLE0=Two On The Road
TTITLE1=Stranglers
TTITLE2=St. James Infirmary
TTITLE3=Crow's Nest
TTITLE4=By And By
TTITLE5=Salt Creek
TTITLE6=Whiskey Waltz
TTITLE7=Wayfaring Strangers
EXTD=
EXTT0=
EXTT1=
EXTT2=
EXTT3=
EXTT4=
EXTT5=
EXTT6=
EXTT7=
PLAYORDER=
